<?xml version="1.0" encoding="UTF-8"?>
<!DOCTYPE svg PUBLIC "-//W3C//DTD SVG 1.1//EN" "http://www.w3.org/Graphics/SVG/1.1/DTD/svg11.dtd">
<!-- Creator: CorelDRAW 2021 (64-Bit) -->
<svg xmlns="http://www.w3.org/2000/svg" xml:space="preserve" width="210mm" height="297mm" version="1.1" style="shape-rendering:geometricPrecision; text-rendering:geometricPrecision; image-rendering:optimizeQuality; fill-rule:evenodd; clip-rule:evenodd"
viewBox="0 0 21000 29700"
 xmlns:xlink="http://www.w3.org/1999/xlink"
 xmlns:xodm="http://www.corel.com/coreldraw/odm/2003">
 <defs>
  <style type="text/css">
   <![CDATA[
    .fil3 {fill:#58A909;fill-rule:nonzero}
    .fil0 {fill:#62AF0A;fill-rule:nonzero}
    .fil4 {fill:#EBF4DF;fill-rule:nonzero}
    .fil6 {fill:#EEF5E4;fill-rule:nonzero}
    .fil5 {fill:#F0F8E4;fill-rule:nonzero}
    .fil2 {fill:#FAFCF6;fill-rule:nonzero}
    .fil1 {fill:#FAFCF7;fill-rule:nonzero}
   ]]>
  </style>
 </defs>
 <g id="Layer_x0020_1">
  <metadata id="CorelCorpID_0Corel-Layer"/>
  <g id="_2251598685200">
   <path class="fil0" d="M2518.74 8398.55c24.22,10.88 24.22,10.88 48.92,21.96 829.84,368.46 1692.92,573 2573.5,779.91 82.95,19.54 165.89,39.1 248.83,58.68 48.12,11.35 96.25,22.67 144.4,33.95 232.43,54.65 457.54,114.02 676.59,210.52 24.8,10.84 49.6,21.68 75.16,32.84 434.61,196.57 814.82,464.47 1162.68,788.84 25.53,23.23 51.06,46.46 77.36,70.39 193.14,183.27 342.28,389.2 489.3,609.62 19.88,29.15 39.74,58.29 60.22,88.33 167.6,257.3 285.55,531.5 393.13,818.36 11.02,29.34 11.02,29.34 22.28,59.28 180.62,498 203.46,1036.16 216.97,1560.98 10.41,256.9 78.82,488.33 157.42,731.44 8.67,-25.33 17.34,-50.65 26.27,-76.74 188.86,-550.23 386.33,-1092.46 625.41,-1623.29 18.54,-41.41 18.54,-41.41 37.46,-83.65 276.33,-611.72 606.93,-1193.05 1010.89,-1729.72 19.65,-26.21 39.3,-52.44 59.55,-79.46 879.94,-1133.43 2162.69,-1875.34 3589.16,-2055.5 544.77,-63.19 1082.45,-65.28 1628.02,-11.87 18.75,1.82 37.5,3.64 56.83,5.52 426.93,41.85 850.63,102.89 1274.69,167.01 135.25,20.42 270.56,40.57 405.86,60.63 71.26,10.59 142.5,21.27 213.73,32.08 254.4,38.01 508.14,66.8 765.28,77.2 28.39,1.19 56.79,2.38 86.05,3.6 42.71,1.67 42.71,1.67 86.28,3.37 29.67,1.23 59.35,2.45 89.92,3.72 72.15,2.96 144.29,5.85 216.44,8.68 -33.85,89.88 -70.33,169.3 -123.63,249.14 -13.25,19.92 -26.51,39.85 -40.16,60.38 -14.33,21.17 -28.65,42.33 -43.41,64.13 -22.57,33.53 -22.57,33.53 -45.6,67.73 -165.37,244.07 -334.85,484.8 -512.22,720.3 -14.34,19.08 -28.69,38.14 -43.47,57.78 -218.21,285.9 -463.93,542.04 -718,795.78 -15.31,15.28 -30.61,30.58 -46.37,46.33 -824.9,821.43 -1774.06,1466.68 -2926.91,1715.68 -20.6,4.51 -41.21,9.03 -62.44,13.68 -944.4,190.93 -1899.45,25.68 -2817.53,-203.49 -202.41,-50.43 -404.9,-94.8 -610.39,-130.71 -19.98,-3.7 -39.97,-7.38 -60.55,-11.18 -213.05,-33.5 -507,-77.01 -702.69,25.34 -28.64,23.37 -57.27,46.75 -86.77,70.83 -16.52,12.9 -33.03,25.79 -50.04,39.08 -515.25,451.37 -801.39,1250.65 -998.32,1887.62 -6.67,21.52 -13.35,43.03 -20.23,65.19 -641.73,2120.22 -73.21,4723.84 308.43,6857.97 3.49,19.63 6.97,39.26 10.57,59.49 9.35,52.5 18.84,104.98 28.32,157.46 12.92,85.01 12.92,85.01 12.92,198.35 -392.7,0 -785.42,0 -1190.02,0 -18.85,-113.09 -31.96,-203.5 -32.45,-314.98 -0.27,-41.75 -0.27,-41.75 -0.54,-84.34 -0.04,-30.03 -0.07,-60.06 -0.1,-91 -0.13,-31.88 -0.25,-63.75 -0.37,-96.6 -0.28,-105.41 -0.28,-210.82 -0.19,-316.22 0.02,-36.62 0.03,-73.22 0.06,-110.93 1.64,-1315.78 71.13,-2628.26 146.92,-3941.47 1.16,-19.99 2.3,-39.97 3.49,-60.58 13.02,-226 26.53,-451.95 40.76,-677.88 26.18,-418.37 50.33,-835.69 48.15,-1255.09 -0.32,-70.94 0,-141.85 0.35,-212.78 6.47,-640.41 6.47,-640.41 -248.58,-1210.77 -80.63,-80.63 -135.76,-122.94 -250.3,-133.74 -24.39,0.37 -48.77,0.76 -73.89,1.15 -27.85,0.28 -55.69,0.56 -84.38,0.85 -45.06,0.83 -45.06,0.83 -91.03,1.69 -64.46,0.58 -128.92,1.15 -193.36,1.71 -100.95,1.23 -201.9,2.59 -302.84,4.14 -923.97,13.14 -1770.18,-163.18 -2531.76,-711.65 -24.3,-17.46 -24.3,-17.46 -49.09,-35.28 -1198.7,-874.64 -1831.63,-2279.29 -2104.28,-3704.78 -5.29,-27.23 -10.6,-54.46 -16.05,-82.52 -22.17,-117.18 -40.61,-222.76 -40.61,-342.49z"/>
   <path class="fil1" d="M16317.29 9928.58c-95.08,55.25 -180.58,70.71 -289.09,85.23 -35.98,5.03 -71.98,10.06 -109.05,15.25 -19.31,2.64 -38.62,5.29 -58.51,8.02 -2181.58,302.46 -4519.48,969.6 -6088.46,2611.54 -9.35,-18.7 -18.69,-37.4 -28.33,-56.66 398.46,-997.33 1491.89,-1482.21 2418.99,-1882.43 1314.8,-555.02 2731.68,-793.62 4154.45,-780.95z"/>
   <path class="fil2" d="M4388.77 10155.25c944.13,271.33 1806.12,697.77 2578.37,1303.35 40.87,31.29 40.87,31.29 82.57,63.2 370.23,291.06 687.9,634.55 965.77,1013.49 19.55,26.33 39.09,52.66 59.22,79.8 99.35,137.57 186.49,273.53 252.46,430.21 -9.34,28.04 -18.7,56.1 -28.33,84.99 -20.6,-24.35 -41.2,-48.71 -62.42,-73.81 -374.83,-441.46 -762.81,-890.45 -1212.61,-1257.87 -27.06,-22.17 -54.12,-44.34 -82,-67.18 -658.62,-531.87 -1377.73,-933.97 -2128.7,-1318.52 -143.15,-73.51 -284.37,-149.91 -424.33,-229.33 0,-9.34 0,-18.69 0,-28.33z"/>
   <path class="fil3" d="M10253.86 12251.95c9.34,28.05 18.7,56.1 28.33,85 28.38,-2.38 56.76,-4.74 86,-7.2 38.03,-2.92 76.07,-5.83 114.11,-8.74 37.15,-2.95 74.29,-5.92 112.56,-8.96 110.17,-3.36 202.76,5.96 310.68,24.9 0,9.35 0,18.7 0,28.34 -34.52,0.72 -69.04,1.45 -104.59,2.21 -46.01,1.6 -92.02,3.21 -138.02,4.86 -34,0.61 -34,0.61 -68.67,1.22 -226.23,9.24 -365.29,87.99 -522.8,253.79 -19.25,20.02 -38.5,40.03 -58.33,60.66 -14.06,15.04 -28.12,30.09 -42.61,45.6 -9.35,-18.7 -18.7,-37.41 -28.33,-56.67 9.34,-18.7 18.69,-37.4 28.33,-56.68 -65.45,9.36 -130.9,18.71 -198.34,28.34 323.82,-396.67 323.82,-396.67 481.68,-396.67z"/>
   <path class="fil4" d="M16317.29 9928.58c-148.36,84.9 -316.87,93.72 -483.45,118.65 -50.86,8.07 -50.86,8.07 -102.76,16.32 -32.46,4.95 -64.9,9.89 -98.34,15 -44.55,6.8 -44.55,6.8 -89.98,13.74 -75.48,6.29 -75.48,6.29 -160.49,-22.05 18.7,0 37.41,0 56.68,0 0,-18.69 0,-37.39 0,-56.66 -84.15,-14.03 -84.15,-14.03 -170.01,-28.33 0,-9.35 0,-18.7 0,-28.34 349.68,-30.5 697.55,-31.45 1048.35,-28.33z"/>
   <path class="fil5" d="M4388.77 10155.25c180.69,53.19 360.03,109.27 538.34,170 -18.71,37.4 -37.41,74.8 -56.67,113.33 -158.95,-84.15 -317.9,-168.3 -481.67,-255 0,-9.34 0,-18.69 0,-28.33z"/>
   <path class="fil6" d="M8242.16 12903.63c72.69,72.69 71.98,126.85 85,226.66 -46.75,-46.74 -93.5,-93.5 -141.67,-141.66 18.71,-28.05 37.4,-56.1 56.67,-85z"/>
  </g>
 </g>
</svg>
