<?xml version="1.0" encoding="UTF-8"?>
<!DOCTYPE svg PUBLIC "-//W3C//DTD SVG 1.1//EN" "http://www.w3.org/Graphics/SVG/1.1/DTD/svg11.dtd">
<!-- Creator: CorelDRAW 2021 (64-Bit) -->
<svg xmlns="http://www.w3.org/2000/svg" xml:space="preserve" width="210mm" height="297mm" version="1.1" style="shape-rendering:geometricPrecision; text-rendering:geometricPrecision; image-rendering:optimizeQuality; fill-rule:evenodd; clip-rule:evenodd"
viewBox="0 0 21000 29700"
 xmlns:xlink="http://www.w3.org/1999/xlink"
 xmlns:xodm="http://www.corel.com/coreldraw/odm/2003">
 <defs>
  <style type="text/css">
   <![CDATA[
    .fil8 {fill:#58A909;fill-rule:nonzero}
    .fil7 {fill:#5DAB09;fill-rule:nonzero}
    .fil3 {fill:#60AE09;fill-rule:nonzero}
    .fil2 {fill:#61AE0A;fill-rule:nonzero}
    .fil0 {fill:#62AF0A;fill-rule:nonzero}
    .fil1 {fill:#62AF0B;fill-rule:nonzero}
    .fil5 {fill:#65B009;fill-rule:nonzero}
    .fil9 {fill:#EBF4DF;fill-rule:nonzero}
    .fil12 {fill:#EEF5E4;fill-rule:nonzero}
    .fil10 {fill:#F0F8E4;fill-rule:nonzero}
    .fil6 {fill:#FAFCF6;fill-rule:nonzero}
    .fil4 {fill:#FAFCF7;fill-rule:nonzero}
    .fil13 {fill:#FDFEFB;fill-rule:nonzero}
    .fil11 {fill:#FDFEFC;fill-rule:nonzero}
   ]]>
  </style>
 </defs>
 <g id="Layer_x0020_1">
  <metadata id="CorelCorpID_0Corel-Layer"/>
  <path class="fil0" d="M3462.83 10890.96c13.5,6.06 13.5,6.06 27.27,12.24 462.43,205.32 943.38,319.3 1434.08,434.6 46.23,10.89 92.45,21.79 138.66,32.7 26.82,6.33 53.64,12.64 80.47,18.92 129.53,30.45 254.97,63.54 377.03,117.32 13.82,6.04 27.65,12.07 41.88,18.29 242.2,109.54 454.07,258.83 647.91,439.59 14.23,12.94 28.45,25.89 43.11,39.22 107.63,102.13 190.74,216.89 272.67,339.72 11.07,16.24 22.14,32.48 33.55,49.22 93.4,143.38 159.13,296.18 219.08,456.03 6.14,16.35 6.14,16.35 12.41,33.03 100.65,277.51 113.38,577.4 120.91,869.86 5.8,143.16 43.92,272.12 87.72,407.6 4.83,-14.12 9.66,-28.23 14.64,-42.77 105.24,-306.61 215.28,-608.77 348.51,-904.58 10.33,-23.07 10.33,-23.07 20.88,-46.61 153.98,-340.89 338.2,-664.83 563.31,-963.89 10.95,-14.61 21.9,-29.22 33.19,-44.28 490.35,-631.61 1205.16,-1045.04 2000.06,-1145.43 303.58,-35.21 603.2,-36.38 907.22,-6.62 10.45,1.02 20.9,2.03 31.67,3.08 237.91,23.32 474.01,57.33 710.32,93.07 75.37,11.38 150.77,22.6 226.17,33.79 39.71,5.89 79.41,11.85 119.1,17.87 141.76,21.18 283.16,37.22 426.46,43.02 15.82,0.66 31.64,1.32 47.95,2 23.79,0.93 23.79,0.93 48.08,1.88 16.53,0.69 33.07,1.37 50.11,2.07 40.2,1.66 80.4,3.27 120.6,4.84 -18.86,50.09 -39.18,94.34 -68.89,138.84 -7.38,11.1 -14.77,22.2 -22.38,33.64 -7.98,11.8 -15.96,23.59 -24.18,35.74 -12.58,18.69 -12.58,18.69 -25.42,37.74 -92.15,136.01 -186.59,270.16 -285.43,401.39 -7.99,10.63 -15.99,21.25 -24.22,32.2 -121.6,159.32 -258.54,302.05 -400.11,443.45 -8.53,8.52 -17.06,17.04 -25.84,25.82 -459.68,457.74 -988.6,817.31 -1631.03,956.06 -11.48,2.52 -22.96,5.03 -34.79,7.62 -526.27,106.4 -1058.48,14.31 -1570.08,-113.39 -112.79,-28.1 -225.63,-52.82 -340.14,-72.84 -11.13,-2.06 -22.27,-4.11 -33.74,-6.23 -118.72,-18.67 -282.53,-42.91 -391.58,14.13 -15.95,13.02 -31.91,26.04 -48.35,39.46 -9.2,7.19 -18.41,14.37 -27.88,21.78 -287.13,251.52 -446.58,696.93 -556.32,1051.88 -3.72,11.99 -7.44,23.98 -11.27,36.33 -357.61,1181.49 -40.8,2632.36 171.87,3821.61 1.95,10.94 3.89,21.88 5.89,33.15 5.21,29.26 10.5,58.5 15.78,87.75 7.2,47.37 7.2,47.37 7.2,110.53 -218.83,0 -437.67,0 -663.14,0 -10.5,-63.02 -17.81,-113.4 -18.08,-175.52 -0.15,-23.27 -0.15,-23.27 -0.3,-47 -0.02,-16.74 -0.04,-33.47 -0.06,-50.71 -0.07,-17.76 -0.14,-35.52 -0.2,-53.83 -0.16,-58.74 -0.16,-117.48 -0.11,-176.22 0.01,-20.4 0.02,-40.8 0.03,-61.81 0.92,-733.22 39.64,-1464.61 81.88,-2196.39 0.64,-11.14 1.28,-22.28 1.94,-33.76 7.26,-125.94 14.78,-251.85 22.71,-377.75 14.59,-233.14 28.05,-465.69 26.83,-699.4 -0.18,-39.53 0,-79.05 0.2,-118.57 3.6,-356.87 3.6,-356.87 -138.52,-674.71 -44.93,-44.93 -75.65,-68.51 -139.48,-74.53 -13.59,0.21 -27.18,0.43 -41.18,0.65 -15.51,0.15 -31.03,0.31 -47.02,0.47 -25.11,0.46 -25.11,0.46 -50.73,0.94 -35.92,0.32 -71.83,0.64 -107.75,0.96 -56.25,0.68 -112.5,1.43 -168.75,2.3 -514.89,7.32 -986.44,-90.93 -1410.83,-396.57 -13.54,-9.73 -13.54,-9.73 -27.36,-19.66 -667.98,-487.39 -1020.67,-1270.14 -1172.61,-2064.49 -2.95,-15.18 -5.9,-30.35 -8.94,-45.99 -12.36,-65.29 -22.64,-124.13 -22.64,-190.85z"/>
  <path class="fil0" d="M14215.18 15817.15c93.28,61.1 152.73,139.59 205.26,236.83 15.14,-15.63 15.14,-15.63 30.59,-31.58 16.09,-15.82 32.21,-31.6 48.35,-47.36 9.98,-10.1 19.95,-20.19 30.23,-30.59 147.05,-141.18 292.42,-186.17 492.8,-182.91 148.85,6.59 256.87,48.52 366.1,151.58 96.01,109.34 126.41,250.31 124.96,392.78 0,12.02 0.01,24.05 0.01,36.45 -0.02,39.38 -0.26,78.76 -0.52,118.14 -0.05,27.45 -0.1,54.91 -0.13,82.36 -0.12,71.98 -0.43,143.95 -0.78,215.93 -0.32,73.57 -0.46,147.12 -0.63,220.68 -0.34,144.13 -0.89,288.26 -1.53,432.38 -88.58,0 -177.16,0 -268.42,0 -0.34,-46.58 -0.34,-46.58 -0.7,-94.1 -0.82,-103.29 -1.85,-206.58 -3.02,-309.87 -0.71,-62.54 -1.33,-125.09 -1.75,-187.63 -0.42,-60.51 -1.06,-121.01 -1.84,-181.51 -0.27,-22.94 -0.45,-45.87 -0.55,-68.81 1.85,-243.02 1.85,-243.02 -90.82,-461.66 -99.89,-88.54 -188.56,-95.76 -319.6,-92.14 -103.2,11.72 -176.81,44.41 -246.4,122.3 -76.12,103.63 -112.55,193.76 -114.02,323.42 -0.16,10.33 -0.32,20.66 -0.48,31.31 -0.49,33.83 -0.75,67.66 -1.02,101.49 -0.3,23.58 -0.61,47.16 -0.93,70.74 -0.81,61.83 -1.44,123.66 -2.02,185.49 -0.63,63.19 -1.44,126.37 -2.23,189.56 -1.53,123.81 -2.84,247.61 -4.07,371.41 -88.58,0 -177.15,0 -268.42,0 -0.23,-32.17 -0.46,-64.35 -0.69,-97.5 -0.8,-106.82 -1.85,-213.63 -3.03,-320.45 -0.7,-64.71 -1.32,-129.41 -1.75,-194.12 -0.41,-62.55 -1.05,-125.1 -1.84,-187.66 -0.26,-23.75 -0.44,-47.5 -0.54,-71.26 -0.8,-173.3 -4.17,-329.78 -123.27,-465.16 -96.23,-78.04 -226.12,-64.64 -342.55,-53.29 -103.87,29.16 -171.4,81.97 -232.83,169.61 -49.16,88.52 -73.04,155.33 -73.99,257.28 -0.16,10.49 -0.32,20.98 -0.49,31.78 -0.47,34.26 -0.62,68.51 -0.76,102.77 -0.27,23.92 -0.56,47.83 -0.86,71.74 -0.75,62.64 -1.22,125.27 -1.63,187.9 -0.48,64.04 -1.21,128.08 -1.92,192.11 -1.35,125.42 -2.4,250.83 -3.3,376.25 -88.58,0 -177.15,0 -268.41,0 0,-531.46 0,-1062.92 0,-1610.48 88.57,0 177.15,0 268.41,0 5.21,78.15 10.42,156.31 15.79,236.83 15.31,-18.88 30.61,-37.77 46.38,-57.23 197.51,-224.04 486.66,-294.33 758.86,-163.81z"/>
  <path class="fil1" d="M8932.76 15892.15c139.47,115.05 192.45,272.23 214.13,446.04 1.3,37.01 1.87,74.06 1.79,111.1 0.01,10.49 0.01,20.98 0.01,31.78 -0.01,34.26 -0.13,68.52 -0.26,102.77 -0.03,23.92 -0.04,47.83 -0.06,71.74 -0.06,62.64 -0.22,125.27 -0.39,187.9 -0.17,64.04 -0.24,128.07 -0.32,192.11 -0.16,125.42 -0.44,250.84 -0.77,376.26 -83.36,0 -166.73,0 -252.62,0 -5.21,-62.53 -10.42,-125.05 -15.79,-189.47 -19.86,19.21 -39.73,38.42 -60.2,58.22 -78.33,69.59 -157.74,110.91 -255.58,147.03 -10.52,3.89 -21.05,7.78 -31.89,11.78 -168.1,51.31 -346.11,24.47 -504.94,-43.35 -120.47,-66.76 -207.08,-168.31 -250.65,-299.01 -33.47,-130.51 -29.4,-257.04 29.6,-379.92 78.76,-113.98 169.96,-189.57 300,-236.84 16.45,-6.11 16.45,-6.11 33.25,-12.36 108.08,-36.73 207.51,-41.67 321.01,-39.94 16.66,-0.06 33.32,-0.1 50.48,-0.16 132.31,0.9 256.75,19.53 384.71,52.46 -13.89,-159.17 -29.92,-282.54 -147.04,-399.66 -148.82,-93.45 -322.17,-98.21 -491.68,-62.54 -89.31,28.17 -169,66.96 -248,117.12 -29.05,13.51 -29.05,13.51 -76.41,-2.28 -21.9,-36.08 -21.9,-36.08 -42.44,-79.94 -6.9,-14.5 -13.79,-29.02 -20.91,-43.97 -5.15,-11.21 -10.29,-22.43 -15.6,-33.98 325.61,-221.29 732.4,-315.44 1080.57,-82.89z"/>
  <path class="fil2" d="M12460.62 15876.36c121.91,88.4 187.68,206.19 223.02,351.3 8.25,92.14 7.4,183.58 6.17,276 -0.12,26.31 -0.21,52.6 -0.27,78.91 -0.24,68.66 -0.86,137.31 -1.56,205.96 -0.65,70.28 -0.94,140.57 -1.26,210.85 -0.67,137.49 -1.78,274.97 -3.08,412.46 -78.15,0 -156.31,0 -236.83,0 0,-72.94 0,-145.89 0,-221.04 -10.42,0 -20.84,0 -31.58,0 -4.23,9.46 -8.47,18.93 -12.83,28.68 -62.9,115.66 -205.97,184.12 -327.38,220.06 -198.65,44.11 -381.91,18.09 -562.24,-76.48 -110.07,-73.94 -183.97,-182.32 -212.66,-311.41 -16.97,-144.29 -0.24,-261.73 80.49,-386.15 113.23,-139.99 260.98,-201.62 434.64,-232.58 74.16,-6.19 147.64,-6.65 222.03,-5.92 18.77,-0.18 37.55,-0.37 56.89,-0.55 119.4,0.39 223.59,15.84 336.85,53.84 -2.69,-155.68 -20.82,-285.23 -131.25,-401.64 -150.64,-87.57 -309.53,-94.54 -478.36,-60.56 -94.93,27.41 -178.76,63.64 -261.87,117.12 -28.5,13.51 -28.5,13.51 -75.87,-2.28 -19.55,-26.96 -19.55,-26.96 -36.51,-60.2 -5.8,-10.84 -11.6,-21.69 -17.58,-32.87 -9.06,-33.25 -9.06,-33.25 -0.18,-65.5 212.32,-289.05 759.43,-261.88 1031.22,-98z"/>
  <path class="fil3" d="M10376.96 15750.97c150.69,-8.47 306.99,43.89 428.77,131.86 120.36,114.29 169.21,271.87 174.59,433.46 -0.03,20.23 -0.07,40.46 -0.1,61.3 0,11.26 0,22.52 0,34.12 -0.01,36.82 -0.13,73.64 -0.25,110.46 -0.03,25.68 -0.06,51.36 -0.07,77.05 -0.06,67.3 -0.21,134.61 -0.39,201.91 -0.16,68.8 -0.24,137.6 -0.31,206.4 -0.18,134.77 -0.45,269.54 -0.78,404.32 -88.58,0 -177.15,0 -268.41,0 -0.47,-46.96 -0.47,-46.96 -0.95,-94.86 -1.07,-103.86 -2.29,-207.72 -3.59,-311.57 -0.79,-62.92 -1.52,-125.83 -2.12,-188.76 -0.59,-60.81 -1.32,-121.61 -2.15,-182.43 -0.29,-23.11 -0.53,-46.21 -0.72,-69.32 1.34,-234.61 1.34,-234.61 -85.21,-447.77 -130.01,-100.37 -266.86,-112.72 -426.3,-94.74 -125.39,35.62 -207.27,111.6 -271.81,222.41 -45.63,87.37 -61.64,157.27 -63,256.46 -0.32,20.23 -0.63,40.46 -0.96,61.3 -0.27,21.99 -0.53,43.99 -0.8,65.99 -0.32,22.56 -0.65,45.13 -0.99,67.69 -0.87,59.29 -1.65,118.58 -2.41,177.86 -0.8,60.54 -1.67,121.08 -2.55,181.62 -1.69,118.7 -3.29,237.4 -4.84,356.12 -83.37,0 -166.73,0 -252.62,0 0,-531.47 0,-1062.93 0,-1610.49 83.36,0 166.73,0 252.62,0 7.82,125.05 7.82,125.05 15.79,252.62 15.63,-18.88 31.26,-37.77 47.37,-57.23 128.54,-145.8 277.95,-226.28 472.19,-245.78z"/>
  <path class="fil4" d="M11152.11 11743.57c-52.99,30.79 -100.63,39.4 -161.1,47.49 -20.05,2.81 -40.11,5.61 -60.77,8.5 -10.76,1.48 -21.52,2.95 -32.61,4.47 -1215.69,168.55 -2518.49,540.31 -3392.8,1455.29 -5.21,-10.42 -10.42,-20.84 -15.79,-31.58 222.05,-555.76 831.36,-825.96 1347.99,-1048.98 732.67,-309.29 1522.23,-442.25 2315.08,-435.19z"/>
  <path class="fil5" d="M15951.98 15801.36c88.57,0 177.15,0 268.41,0 0,531.46 0,1062.92 0,1610.49 -88.58,0 -177.15,0 -268.41,0 0,-531.47 0,-1062.93 0,-1610.49z"/>
  <path class="fil6" d="M4504.91 11869.88c526.12,151.2 1006.46,388.84 1436.81,726.3 22.77,17.44 22.77,17.44 46.01,35.22 206.31,162.19 383.33,353.6 538.18,564.76 10.89,14.68 21.78,29.35 33,44.47 55.36,76.66 103.92,152.43 140.68,239.74 -5.21,15.63 -10.42,31.26 -15.79,47.36 -11.48,-13.57 -22.96,-27.14 -34.78,-41.13 -208.88,-246.01 -425.08,-496.21 -675.73,-700.95 -15.08,-12.36 -30.16,-24.71 -45.7,-37.44 -367.01,-296.38 -767.74,-520.45 -1186.22,-734.74 -79.77,-40.97 -158.46,-83.54 -236.46,-127.8 0,-5.21 0,-10.42 0,-15.79z"/>
  <path class="fil7" d="M15951.98 15138.22c88.57,0 177.15,0 268.41,0 0,114.63 0,229.26 0,347.36 -88.58,0 -177.15,0 -268.41,0 0,-114.63 0,-229.26 0,-347.36z"/>
  <path class="fil8" d="M7773.24 13038.28c5.21,15.62 10.43,31.25 15.79,47.36 15.82,-1.32 31.63,-2.64 47.93,-4.01 21.19,-1.63 42.39,-3.25 63.58,-4.87 20.7,-1.65 41.4,-3.3 62.73,-4.99 61.39,-1.88 112.99,3.31 173.13,13.87 0,5.21 0,10.42 0,15.79 -19.24,0.41 -38.48,0.81 -58.29,1.24 -25.63,0.88 -51.28,1.79 -76.91,2.7 -18.94,0.34 -18.94,0.34 -38.27,0.68 -126.06,5.15 -203.56,49.03 -291.33,141.43 -10.73,11.15 -21.45,22.31 -32.5,33.8 -7.84,8.38 -15.67,16.77 -23.75,25.41 -5.21,-10.42 -10.41,-20.85 -15.79,-31.58 5.21,-10.42 10.42,-20.84 15.79,-31.58 -36.47,5.21 -72.94,10.42 -110.52,15.79 180.45,-221.04 180.45,-221.04 268.41,-221.04z"/>
  <path class="fil9" d="M11152.11 11743.57c-82.68,47.31 -176.58,52.23 -269.41,66.12 -28.34,4.5 -28.34,4.5 -57.26,9.09 -18.09,2.76 -36.17,5.52 -54.8,8.36 -24.83,3.79 -24.83,3.79 -50.15,7.66 -42.06,3.5 -42.06,3.5 -89.43,-12.29 10.42,0 20.85,0 31.58,0 0,-10.42 0,-20.84 0,-31.57 -46.89,-7.82 -46.89,-7.82 -94.73,-15.79 0,-5.21 0,-10.42 0,-15.79 194.86,-17 388.71,-17.53 584.2,-15.79z"/>
  <path class="fil10" d="M4504.91 11869.88c100.69,29.64 200.63,60.9 299.99,94.74 -10.42,20.84 -20.84,41.68 -31.58,63.15 -88.57,-46.89 -177.15,-93.78 -268.41,-142.1 0,-5.21 0,-10.42 0,-15.79z"/>
  <path class="fil11" d="M8491.3 16605.64c18.27,0.05 18.27,0.05 36.91,0.1 301.9,5.18 301.9,5.18 364.72,68 12.48,140.08 22.44,274.83 -63.83,393.43 -5.01,5.33 -10.06,10.54 -15.16,15.64 0.49,-42.04 -86.22,64.88 -94.01,78.01 -94.49,63.88 -201.92,97.04 -324.35,104.02 -127.43,-5.04 -252.67,-55.71 -339.46,-149.01 -54.01,-93.61 -65.41,-182.49 -38.68,-286.42 39.73,-98.65 117.35,-146.05 212.35,-187.25 88.86,-26.82 168.96,-37.17 261.51,-36.52z"/>
  <path class="fil12" d="M6652.22 13401.42c40.51,40.51 40.11,70.69 47.37,126.31 -26.05,-26.05 -52.11,-52.1 -78.95,-78.94 10.43,-15.63 20.85,-31.26 31.58,-47.37z"/>
  <path class="fil13" d="M11989.36 16604.5c20.02,0.02 20.02,0.02 40.44,0.04 129.98,1.27 247.63,15.42 368.11,66.08 9.99,166.51 7.28,295.68 -106.76,426.67 -118.62,114.05 -273.4,163.24 -435.5,160.85 -120.87,-9.59 -213.09,-56.01 -294.56,-145.43 -54.18,-73.4 -57.46,-148.43 -54.71,-237.27 12.02,-76.87 43.33,-123.2 102.07,-173.24 124.98,-79.74 235.62,-97.84 380.91,-97.7z"/>
 </g>
</svg>
