<?xml version="1.0" encoding="UTF-8"?>
<!DOCTYPE svg PUBLIC "-//W3C//DTD SVG 1.1//EN" "http://www.w3.org/Graphics/SVG/1.1/DTD/svg11.dtd">
<!-- Creator: CorelDRAW 2021 (64-Bit) -->
<svg xmlns="http://www.w3.org/2000/svg" xml:space="preserve" width="127.273mm" height="180mm" version="1.1" style="shape-rendering:geometricPrecision; text-rendering:geometricPrecision; image-rendering:optimizeQuality; fill-rule:evenodd; clip-rule:evenodd"
viewBox="0 0 12727.27 18000"
 xmlns:xlink="http://www.w3.org/1999/xlink"
 xmlns:xodm="http://www.corel.com/coreldraw/odm/2003">
 <defs>
  <style type="text/css">
   <![CDATA[
    .fil1 {fill:#62AF0A;fill-rule:nonzero}
    .fil0 {fill:white;fill-rule:nonzero}
   ]]>
  </style>
 </defs>
 <g id="Layer_x0020_1">
  <metadata id="CorelCorpID_0Corel-Layer"/>
  <path class="fil0" d="M2098.68 6600.58c8.18,3.67 8.18,3.67 16.53,7.42 280.26,124.44 571.75,193.52 869.14,263.39 28.02,6.6 56.03,13.21 84.04,19.82 16.25,3.84 32.51,7.66 48.77,11.47 78.5,18.45 154.53,38.51 228.5,71.1 8.38,3.66 16.76,7.32 25.38,11.08 146.79,66.39 275.19,156.87 392.67,266.42 8.62,7.84 17.24,15.69 26.13,23.77 65.23,61.9 115.6,131.45 165.25,205.89 6.71,9.84 13.42,19.68 20.33,29.83 56.61,86.9 96.44,179.5 132.78,276.38 3.72,9.91 3.72,9.91 7.52,20.02 61,168.19 68.72,349.94 73.28,527.19 3.52,86.76 26.62,164.92 53.16,247.03 2.93,-8.56 5.85,-17.11 8.87,-25.92 63.78,-185.82 130.47,-368.95 211.22,-548.23 6.26,-13.98 6.26,-13.98 12.65,-28.25 93.32,-206.6 204.97,-402.93 341.4,-584.18 6.64,-8.85 13.27,-17.71 20.12,-26.84 297.18,-382.79 730.4,-633.36 1212.16,-694.2 183.99,-21.34 365.58,-22.05 549.83,-4.01 6.33,0.62 12.67,1.23 19.19,1.87 144.19,14.13 287.28,34.75 430.5,56.41 45.68,6.9 91.38,13.7 137.07,20.48 24.07,3.57 48.13,7.18 72.18,10.83 85.92,12.84 171.61,22.56 258.46,26.07 9.59,0.4 19.18,0.8 29.06,1.21 14.42,0.56 14.42,0.56 29.14,1.14 10.02,0.42 20.04,0.83 30.37,1.25 24.36,1.01 48.73,1.98 73.09,2.93 -11.43,30.36 -23.75,57.18 -41.75,84.15 -4.47,6.73 -8.95,13.45 -13.56,20.39 -4.84,7.15 -9.67,14.3 -14.65,21.66 -7.62,11.33 -7.62,11.33 -15.41,22.87 -55.85,82.43 -113.08,163.73 -172.99,243.27 -4.84,6.44 -9.69,12.88 -14.68,19.52 -73.7,96.56 -156.69,183.06 -242.49,268.76 -5.17,5.16 -10.34,10.33 -15.66,15.65 -278.59,277.42 -599.15,495.34 -988.5,579.43 -6.96,1.53 -13.92,3.05 -21.08,4.62 -318.95,64.48 -641.5,8.67 -951.56,-68.72 -68.36,-17.03 -136.75,-32.01 -206.15,-44.15 -6.75,-1.25 -13.5,-2.49 -20.45,-3.78 -71.95,-11.32 -171.23,-26.01 -237.32,8.56 -9.67,7.89 -19.34,15.78 -29.3,23.92 -5.58,4.36 -11.16,8.71 -16.9,13.2 -174.02,152.44 -270.65,422.38 -337.16,637.5 -2.25,7.27 -4.51,14.53 -6.83,22.02 -216.73,716.05 -24.73,1595.37 104.16,2316.13 1.18,6.63 2.36,13.26 3.57,20.09 3.16,17.73 6.36,35.45 9.56,53.18 4.36,28.71 4.36,28.71 4.36,66.99 -132.62,0 -265.25,0 -401.9,0 -6.36,-38.19 -10.79,-68.73 -10.96,-106.38 -0.09,-14.1 -0.09,-14.1 -0.18,-28.48 -0.01,-10.15 -0.02,-20.28 -0.04,-30.73 -0.04,-10.76 -0.08,-21.53 -0.12,-32.62 -0.1,-35.6 -0.1,-71.2 -0.07,-106.8 0.01,-12.36 0.01,-24.73 0.02,-37.46 0.56,-444.38 24.02,-887.64 49.62,-1331.15 0.39,-6.75 0.78,-13.5 1.18,-20.46 4.4,-76.33 8.96,-152.64 13.76,-228.94 8.84,-141.3 17,-282.24 16.26,-423.88 -0.11,-23.96 0,-47.91 0.12,-71.86 2.18,-216.28 2.18,-216.28 -83.95,-408.92 -27.23,-27.23 -45.85,-41.52 -84.53,-45.17 -8.24,0.13 -16.47,0.26 -24.96,0.39 -9.4,0.09 -18.81,0.19 -28.5,0.28 -15.22,0.28 -15.22,0.28 -30.75,0.57 -21.77,0.19 -43.53,0.39 -65.3,0.58 -34.09,0.41 -68.18,0.87 -102.27,1.39 -312.05,4.44 -597.84,-55.11 -855.05,-240.35 -8.21,-5.9 -8.21,-5.9 -16.58,-11.92 -404.84,-295.39 -618.59,-769.78 -710.67,-1251.21 -1.79,-9.2 -3.58,-18.39 -5.42,-27.87 -7.49,-39.57 -13.72,-75.23 -13.72,-115.67z"/>
  <path class="fil0" d="M8615.26 9586.15c56.53,37.03 92.56,84.6 124.4,143.53 9.18,-9.47 9.18,-9.47 18.54,-19.14 9.75,-9.59 19.52,-19.15 29.3,-28.7 6.05,-6.12 12.09,-12.24 18.32,-18.54 89.12,-85.56 177.22,-112.83 298.67,-110.85 90.21,3.99 155.68,29.41 221.88,91.87 58.19,66.27 76.61,151.7 75.73,238.05 0,7.28 0.01,14.58 0.01,22.09 -0.01,23.87 -0.16,47.73 -0.32,71.6 -0.03,16.64 -0.06,33.28 -0.08,49.92 -0.07,43.62 -0.26,87.24 -0.47,130.87 -0.19,44.59 -0.28,89.16 -0.38,133.75 -0.21,87.35 -0.54,174.7 -0.93,262.05 -53.68,0 -107.37,0 -162.68,0 -0.21,-28.23 -0.21,-28.23 -0.42,-57.03 -0.5,-62.6 -1.12,-125.2 -1.83,-187.8 -0.43,-37.9 -0.81,-75.81 -1.06,-113.72 -0.25,-36.67 -0.64,-73.34 -1.12,-110.01 -0.16,-13.9 -0.27,-27.8 -0.33,-41.7 1.12,-147.28 1.12,-147.28 -55.04,-279.79 -60.54,-53.66 -114.28,-58.04 -193.7,-55.84 -62.55,7.1 -107.16,26.92 -149.33,74.12 -46.13,62.81 -68.21,117.43 -69.1,196.01 -0.1,6.26 -0.19,12.52 -0.29,18.98 -0.3,20.5 -0.45,41.01 -0.62,61.51 -0.18,14.29 -0.37,28.58 -0.56,42.87 -0.49,37.47 -0.87,74.95 -1.22,112.42 -0.38,38.3 -0.87,76.59 -1.35,114.88 -0.93,75.04 -1.72,150.07 -2.47,225.1 -53.68,0 -107.36,0 -162.68,0 -0.14,-19.5 -0.28,-39 -0.42,-59.09 -0.48,-64.74 -1.12,-129.47 -1.84,-194.21 -0.42,-39.22 -0.8,-78.43 -1.06,-117.65 -0.25,-37.91 -0.64,-75.82 -1.12,-113.73 -0.16,-14.39 -0.27,-28.79 -0.33,-43.19 -0.48,-105.03 -2.53,-199.87 -74.71,-281.92 -58.32,-47.3 -137.04,-39.18 -207.61,-32.3 -62.95,17.67 -103.88,49.68 -141.11,102.79 -29.79,53.65 -44.27,94.14 -44.84,155.93 -0.1,6.36 -0.19,12.72 -0.3,19.26 -0.28,20.76 -0.38,41.52 -0.46,62.28 -0.16,14.5 -0.34,28.99 -0.52,43.48 -0.45,37.96 -0.74,75.92 -0.99,113.88 -0.29,38.81 -0.73,77.62 -1.16,116.43 -0.82,76.01 -1.45,152.02 -2,228.03 -53.68,0 -107.36,0 -162.67,0 0,-322.1 0,-644.19 0,-976.05 53.68,0 107.36,0 162.67,0 3.16,47.36 6.32,94.73 9.57,143.53 9.28,-11.44 18.55,-22.89 28.11,-34.68 119.7,-135.78 294.95,-178.38 459.92,-99.28z"/>
  <path class="fil0" d="M5413.79 9631.61c84.53,69.73 116.64,164.99 129.78,270.33 0.79,22.43 1.13,44.88 1.08,67.33 0.01,6.36 0.01,12.72 0.01,19.26 -0.01,20.76 -0.08,41.53 -0.16,62.28 -0.02,14.5 -0.02,28.99 -0.04,43.48 -0.04,37.96 -0.13,75.92 -0.24,113.88 -0.1,38.81 -0.15,77.62 -0.19,116.43 -0.1,76.01 -0.27,152.02 -0.47,228.04 -50.52,0 -101.05,0 -153.1,0 -3.16,-37.9 -6.32,-75.79 -9.57,-114.83 -12.04,11.64 -24.08,23.28 -36.48,35.28 -47.47,42.18 -95.6,67.22 -154.9,89.11 -6.38,2.36 -12.76,4.72 -19.33,7.14 -101.88,31.1 -209.76,14.83 -306.02,-26.27 -73.01,-40.46 -125.5,-102.01 -151.91,-181.22 -20.28,-79.1 -17.82,-155.78 17.94,-230.25 47.73,-69.08 103.01,-114.89 181.82,-143.54 9.97,-3.7 9.97,-3.7 20.15,-7.49 65.5,-22.26 125.76,-25.25 194.55,-24.21 10.1,-0.04 20.19,-0.06 30.59,-0.1 80.19,0.55 155.61,11.84 233.16,31.79 -8.42,-96.47 -18.13,-171.24 -89.12,-242.22 -90.19,-56.64 -195.25,-59.52 -297.99,-37.9 -54.13,17.07 -102.42,40.58 -150.3,70.98 -17.61,8.19 -17.61,8.19 -46.31,-1.38 -13.27,-21.87 -13.27,-21.87 -25.72,-48.45 -4.18,-8.79 -8.36,-17.59 -12.67,-26.65 -3.12,-6.79 -6.24,-13.59 -9.45,-20.59 197.34,-134.12 443.88,-191.18 654.89,-50.24z"/>
  <path class="fil0" d="M7551.89 9622.04c73.88,53.58 113.75,124.96 135.16,212.91 5,55.84 4.48,111.26 3.74,167.27 -0.07,15.95 -0.13,31.88 -0.16,47.82 -0.15,41.61 -0.52,83.22 -0.95,124.82 -0.39,42.59 -0.57,85.19 -0.76,127.79 -0.41,83.33 -1.08,166.65 -1.87,249.98 -47.36,0 -94.73,0 -143.53,0 0,-44.21 0,-88.42 0,-133.96 -6.32,0 -12.63,0 -19.14,0 -2.56,5.73 -5.13,11.47 -7.78,17.38 -38.12,70.1 -124.83,111.59 -198.41,133.37 -120.39,26.73 -231.46,10.96 -340.75,-46.35 -66.71,-44.81 -111.5,-110.5 -128.88,-188.73 -10.28,-87.45 -0.15,-158.62 48.78,-234.03 68.62,-84.84 158.17,-122.19 263.42,-140.96 44.95,-3.75 89.48,-4.03 134.56,-3.59 11.38,-0.11 22.76,-0.22 34.48,-0.33 72.36,0.24 135.51,9.6 204.15,32.63 -1.63,-94.35 -12.62,-172.87 -79.55,-243.42 -91.3,-53.07 -187.59,-57.3 -289.92,-36.7 -57.53,16.61 -108.34,38.57 -158.71,70.98 -17.27,8.19 -17.27,8.19 -45.98,-1.38 -11.85,-16.34 -11.85,-16.34 -22.13,-36.48 -3.52,-6.57 -7.03,-13.15 -10.65,-19.92 -5.49,-20.15 -5.49,-20.15 -0.11,-39.7 128.68,-175.18 460.26,-158.72 624.98,-59.39z"/>
  <path class="fil0" d="M6289.07 9546.04c91.33,-5.13 186.05,26.6 259.86,79.92 72.95,69.27 102.55,164.77 105.81,262.7 -0.02,12.26 -0.04,24.52 -0.06,37.15 0,6.82 0,13.65 0,20.68 -0.01,22.32 -0.08,44.63 -0.15,66.95 -0.02,15.56 -0.04,31.13 -0.04,46.7 -0.04,40.79 -0.13,81.58 -0.24,122.37 -0.1,41.7 -0.15,83.39 -0.19,125.09 -0.11,81.68 -0.27,163.36 -0.47,245.04 -53.68,0 -107.36,0 -162.67,0 -0.28,-28.46 -0.28,-28.46 -0.58,-57.49 -0.65,-62.95 -1.39,-125.89 -2.18,-188.83 -0.48,-38.13 -0.92,-76.26 -1.28,-114.4 -0.36,-36.85 -0.8,-73.7 -1.3,-110.56 -0.18,-14.01 -0.32,-28.01 -0.44,-42.01 0.81,-142.19 0.81,-142.19 -51.64,-271.38 -78.79,-60.83 -161.73,-68.32 -258.36,-57.42 -75.99,21.59 -125.62,67.64 -164.73,134.79 -27.65,52.95 -37.36,95.32 -38.18,155.43 -0.19,12.26 -0.38,24.52 -0.58,37.15 -0.16,13.33 -0.32,26.66 -0.48,39.99 -0.19,13.67 -0.39,27.35 -0.6,41.02 -0.53,35.93 -1,71.87 -1.46,107.79 -0.48,36.69 -1.01,73.38 -1.55,110.07 -1.02,71.94 -1.99,143.88 -2.93,215.83 -50.53,0 -101.05,0 -153.1,0 0,-322.1 0,-644.2 0,-976.05 50.52,0 101.05,0 153.1,0 4.74,75.79 4.74,75.79 9.57,153.1 9.47,-11.44 18.95,-22.89 28.71,-34.68 77.9,-88.36 168.45,-137.14 286.18,-148.96z"/>
  <path class="fil1" d="M6758.85 7117.32c-32.12,18.66 -60.99,23.88 -97.64,28.78 -12.15,1.7 -24.31,3.4 -36.83,5.15 -6.52,0.9 -13.04,1.79 -19.76,2.71 -736.78,102.15 -1526.36,327.46 -2056.24,881.99 -3.16,-6.32 -6.32,-12.63 -9.57,-19.14 134.58,-336.82 503.85,-500.58 816.96,-635.75 444.04,-187.45 922.56,-268.03 1403.08,-263.75z"/>
  <path class="fil0" d="M9667.87 9576.58c53.68,0 107.36,0 162.67,0 0,322.1 0,644.19 0,976.05 -53.68,0 -107.36,0 -162.67,0 0,-322.1 0,-644.2 0,-976.05z"/>
  <path class="fil1" d="M2730.25 7193.87c318.86,91.64 609.98,235.66 870.79,440.18 13.8,10.57 13.8,10.57 27.88,21.35 125.04,98.3 232.32,214.3 326.17,342.28 6.6,8.9 13.2,17.79 20,26.95 33.55,46.46 62.98,92.38 85.26,145.3 -3.16,9.47 -6.32,18.95 -9.57,28.7 -6.96,-8.22 -13.92,-16.45 -21.08,-24.93 -126.59,-149.1 -257.62,-300.73 -409.53,-424.82 -9.14,-7.49 -18.28,-14.98 -27.7,-22.69 -222.43,-179.62 -465.3,-315.42 -718.92,-445.3 -48.35,-24.83 -96.04,-50.63 -143.31,-77.45 0,-3.16 0,-6.32 0,-9.57z"/>
  <path class="fil0" d="M9667.87 9174.68c53.68,0 107.36,0 162.67,0 0,69.47 0,138.95 0,210.52 -53.68,0 -107.36,0 -162.67,0 0,-69.47 0,-138.95 0,-210.52z"/>
  <path class="fil0" d="M4711.05 7901.99c3.16,9.47 6.32,18.94 9.57,28.7 9.59,-0.8 19.17,-1.6 29.05,-2.43 12.84,-0.99 25.69,-1.97 38.53,-2.95 12.55,-1 25.09,-2 38.02,-3.02 37.21,-1.14 68.48,2.01 104.93,8.41 0,3.16 0,6.32 0,9.57 -11.66,0.25 -23.32,0.49 -35.33,0.75 -15.53,0.53 -31.08,1.08 -46.61,1.64 -11.48,0.21 -11.48,0.21 -23.19,0.41 -76.4,3.12 -123.37,29.72 -176.56,85.72 -6.5,6.76 -13,13.52 -19.7,20.48 -4.75,5.08 -9.5,10.16 -14.39,15.4 -3.16,-6.32 -6.31,-12.64 -9.57,-19.14 3.16,-6.32 6.32,-12.63 9.57,-19.14 -22.1,3.16 -44.21,6.32 -66.98,9.57 109.36,-133.96 109.36,-133.96 162.67,-133.96z"/>
  <path class="fil1" d="M6758.85 7117.32c-50.11,28.67 -107.02,31.65 -163.28,40.07 -17.18,2.73 -17.18,2.73 -34.7,5.51 -10.96,1.67 -21.92,3.35 -33.21,5.07 -15.05,2.3 -15.05,2.3 -30.39,4.64 -25.49,2.12 -25.49,2.12 -54.2,-7.45 6.32,0 12.64,0 19.14,0 0,-6.32 0,-12.63 0,-19.13 -28.42,-4.74 -28.42,-4.74 -57.41,-9.57 0,-3.16 0,-6.32 0,-9.57 118.1,-10.3 235.58,-10.62 354.06,-9.57z"/>
  <path class="fil1" d="M2730.25 7193.87c61.02,17.96 121.59,36.91 181.81,57.42 -6.32,12.63 -12.63,25.26 -19.14,38.27 -53.68,-28.42 -107.36,-56.84 -162.67,-86.12 0,-3.16 0,-6.32 0,-9.57z"/>
  <path class="fil1" d="M5146.24 10064.02c11.07,0.03 11.07,0.03 22.37,0.06 182.97,3.14 182.97,3.14 221.04,41.21 7.56,84.9 13.6,166.56 -38.68,238.44 -3.04,3.23 -6.1,6.39 -9.19,9.48 0.3,-25.48 -52.25,39.32 -56.98,47.28 -57.27,38.72 -122.38,58.81 -196.58,63.04 -77.23,-3.05 -153.13,-33.76 -205.73,-90.31 -32.73,-56.73 -39.64,-110.6 -23.44,-173.59 24.08,-59.79 71.12,-88.52 128.7,-113.48 53.85,-16.25 102.4,-22.53 158.49,-22.13z"/>
  <path class="fil1" d="M4031.65 8122.07c24.55,24.55 24.31,42.84 28.71,76.55 -15.79,-15.79 -31.58,-31.58 -47.85,-47.84 6.32,-9.47 12.64,-18.95 19.14,-28.71z"/>
  <path class="fil1" d="M7266.28 10063.33c12.13,0.01 12.13,0.01 24.51,0.02 78.78,0.77 150.08,9.35 223.1,40.05 6.05,100.92 4.41,179.2 -64.7,258.59 -71.89,69.12 -165.7,98.93 -263.94,97.48 -73.25,-5.81 -129.15,-33.95 -178.52,-88.14 -32.84,-44.48 -34.82,-89.96 -33.16,-143.8 7.28,-46.59 26.26,-74.67 61.86,-104.99 75.75,-48.33 142.8,-59.3 230.85,-59.21z"/>
 </g>
</svg>
